<svg xmlns="http://www.w3.org/2000/svg" width="128" height="128" viewBox="0 0 128 128">
  <title>HEDGEHOG </title>
  <g>
    <g>
      <path d="M108.227,79.963c3.19-1.13,8.023,7.037,11.773,9.2-4.417.916-13.75-5.144-14.583-4.656Z" fill="#bdbdc6"/>
      <path d="M100.6,86.438a136.8,136.8,0,0,1-5.854,17.37H79S80.125,98.5,83.583,98.5L88,89.5Z" fill="#bdbdc6"/>
      <path d="M35.437,85.167C33.79,89.673,29.52,97.75,29.52,97.75c-2.916-.583-7.365,3.949-7.807,6.058H37.937L49.27,90.5Z" fill="#bdbdc6"/>
      <path d="M109.437,79.707l-44.416-33.4H28.354l-9.833,4.934L14.448,62.894A9.673,9.673,0,0,1,9.8,68.272l-.73.383a5.386,5.386,0,0,0-.657,9.134c4.328,3.147,15.225,9.688,34.888,13.414-1.641,3.436-3.285,6.547-3.285,6.547-2.916-.583-7.365,3.949-7.807,6.058H48.437l9.053-10.63a209.558,209.558,0,0,0,37.083-.092L91.917,98.5c-3.459,0-4.584,5.308-4.584,5.308h15.75a137.65,137.65,0,0,0,5.349-15.493A27.229,27.229,0,0,0,109.437,79.707Z" fill="#eaeaf0"/>
      <circle cx="26.109" cy="64.582" r="3" fill="#bdbdc6"/>
      <path d="M115.12,64c3.94,7.38,2.73,13.25,2.73,13.25a14.052,14.052,0,0,0-5.91-4.67c.56,3.94-2.5,7.13-2.5,7.13a62.072,62.072,0,0,1-24.59,0c-9.49-1.86-22.33-14.27-39.66-22.07a13.094,13.094,0,0,0,.36-7.96s-5.82,1.16-9.72,4.41a63.281,63.281,0,0,0-17.31-2.85,34.546,34.546,0,0,1,9.17-27.05c-1.88,3.93,2.25,14.93,2.25,14.93C33.06,30,42.31,26.25,42.31,26.25a37.671,37.671,0,0,0-.62,11.43,35.636,35.636,0,0,1,15.62-9.93c-1.87,1.81-4.43,9.44-4.43,9.44A58.165,58.165,0,0,1,69.69,30.5c-1.5,1.58-4.34,8.75-4.34,8.75,7.42-3.25,20.21-3.87,20.21-3.87A29.781,29.781,0,0,0,80.19,42a61.621,61.621,0,0,1,21.33,1.67c-2.75.5-6.5,3.41-6.5,3.41s14.6,1.88,17.48,4.09c-1.44.14-6.25,2.14-6.25,2.14,6.94,2.13,15.25,10.19,15.25,10.19A32.042,32.042,0,0,0,115.12,64Z" fill="#f4a86c"/>
    </g>
    <g>
      <path d="M83.088,86.037c-2.8.109-5.576.165-8.256.165a1.75,1.75,0,0,0,0,3.5c2.725,0,5.548-.056,8.393-.167a1.749,1.749,0,0,0,1.68-1.817A1.727,1.727,0,0,0,83.088,86.037Z" fill="#072130"/>
      <path d="M21.359,64.582a4.75,4.75,0,1,0,4.75-4.75A4.756,4.756,0,0,0,21.359,64.582Zm6,0a1.25,1.25,0,1,1-1.25-1.25A1.252,1.252,0,0,1,27.359,64.582Z" fill="#072130"/>
      <path d="M65.261,67.035q-.969-.633-1.967-1.276A1.75,1.75,0,1,0,61.4,68.7q.988.636,1.95,1.265a1.75,1.75,0,0,0,1.911-2.932Z" fill="#072130"/>
      <path d="M122.718,62.244A61.33,61.33,0,0,0,110.9,53.411a10.619,10.619,0,0,1,1.773-.5,1.751,1.751,0,0,0,.9-3.131c-2.128-1.633-8.792-2.963-13.571-3.741a7.7,7.7,0,0,1,1.839-.648,1.75,1.75,0,0,0,.185-3.4,62.291,62.291,0,0,0-18.343-1.983,29.022,29.022,0,0,1,3.074-3.345,1.749,1.749,0,0,0,.424-1.962,1.771,1.771,0,0,0-1.7-1.07,85.644,85.644,0,0,0-16.964,2.642,23.563,23.563,0,0,1,2.448-4.569,1.75,1.75,0,0,0-1.606-2.922,59.079,59.079,0,0,0-13.175,4.625,17.187,17.187,0,0,1,2.349-4.4,1.75,1.75,0,0,0-1.664-2.95,36.989,36.989,0,0,0-13.6,7.619,35.1,35.1,0,0,1,.76-7.054,1.751,1.751,0,0,0-2.368-2,26.291,26.291,0,0,0-11.4,9.769c-1.05-3.758-1.749-7.841-.979-9.452a1.75,1.75,0,0,0-2.78-2.028A36.033,36.033,0,0,0,16.749,51L12.8,62.313A7.89,7.89,0,0,1,8.99,66.718l-.734.384a7.142,7.142,0,0,0-.866,12.1c3.792,2.759,11.4,7.321,23.969,10.959-1.116,2.346-2.259,4.592-2.891,5.815-3.8.407-7.937,4.968-8.469,7.465a1.751,1.751,0,0,0,1.711,2.116H48.44a1.747,1.747,0,0,0,1.332-.616L58.235,95a201.382,201.382,0,0,0,24.847.539l-.658,1.341c-3.085.736-4.667,4.34-5.136,6.564A1.75,1.75,0,0,0,79,105.56h24.08a1.75,1.75,0,0,0,1.609-1.062c.04-.093.992-2.324,2.258-5.834a1.75,1.75,0,1,0-3.292-1.187c-.726,2.01-1.353,3.608-1.746,4.583H89.826c.49-.941,1.2-1.81,2.094-1.81a1.75,1.75,0,0,0,1.572-.98l2.65-5.411a1.751,1.751,0,0,0-1.72-2.513,209.691,209.691,0,0,1-36.77.092,1.752,1.752,0,0,0-1.494.607L47.631,102.06h-12.3c1.332-1.415,3.267-2.8,4.346-2.593a1.756,1.756,0,0,0,1.889-.9c.016-.031,1.675-3.179,3.32-6.609a1.75,1.75,0,0,0-1.253-2.477c-19.723-3.729-30.477-10.407-34.184-13.1A3.643,3.643,0,0,1,9.879,70.2l.731-.382A11.372,11.372,0,0,0,16.1,63.467l3.643-10.428a60.387,60.387,0,0,1,12.836,1.953,10.226,10.226,0,0,0-.959,1.521,1.75,1.75,0,1,0,3.132,1.562,8.323,8.323,0,0,1,2.124-2.588c.044-.034.085-.07.127-.108a21.417,21.417,0,0,1,7.155-3.526,9.959,9.959,0,0,1-3.9,9.5,1.75,1.75,0,0,0,1.869,2.959,12.86,12.86,0,0,0,3.917-4.345c2.491,1.175,5.084,2.533,7.889,4.147q1.518.877,2.981,1.772A1.75,1.75,0,0,0,58.737,62.9q-1.5-.912-3.054-1.814c-2.965-1.707-5.706-3.138-8.345-4.375a15.43,15.43,0,0,0-.088-7.435,1.744,1.744,0,0,0-2.044-1.3,27.683,27.683,0,0,0-9.729,4.2,64.636,64.636,0,0,0-15.324-2.621,33.358,33.358,0,0,1,5.481-19.959A50.236,50.236,0,0,0,28.3,39.735a1.71,1.71,0,0,0,1.664,1.135,1.75,1.75,0,0,0,1.63-1.183A20.486,20.486,0,0,1,40.008,29.5a38.687,38.687,0,0,0-.054,8.4,1.75,1.75,0,0,0,3.036.952,33.931,33.931,0,0,1,10.321-7.644c-1.028,2.322-1.844,4.691-2.09,5.426a1.75,1.75,0,0,0,2.564,2.054,56.475,56.475,0,0,1,12.258-5.409c-1.078,2.23-2.036,4.611-2.32,5.326a1.75,1.75,0,0,0,2.329,2.248c4.38-1.918,10.853-2.89,15.145-3.351a27.955,27.955,0,0,0-2.538,3.65,1.75,1.75,0,0,0,1.7,2.589,61.389,61.389,0,0,1,15.614.542c-1.074.682-1.852,1.277-2.03,1.414a1.75,1.75,0,0,0,.849,3.118,121.882,121.882,0,0,1,12.388,2.231c-.686.268-1.263.505-1.606.647a1.75,1.75,0,0,0,.158,3.289c3.921,1.2,8.418,4.526,11.362,6.964-1.265.149-2.21.318-2.289.332a1.75,1.75,0,0,0-1.233,2.546,22.487,22.487,0,0,1,2.588,8.206,15.446,15.446,0,0,0-3.611-2.089,1.749,1.749,0,0,0-2.345,1.885,7.472,7.472,0,0,1-1.724,5.3,61.9,61.9,0,0,1-23.3-.138c-4.231-.829-9.452-4.09-15.344-7.948a1.75,1.75,0,1,0-1.918,2.928c6.2,4.063,11.737,7.505,16.59,8.456a67.594,67.594,0,0,0,12.9,1.239,62.023,62.023,0,0,0,10.277-.823,21.313,21.313,0,0,1-.913,5.891c-.012.036-.023.071-.033.106-.247.888-.5,1.757-.755,2.6a1.749,1.749,0,0,0,1.169,2.182,1.712,1.712,0,0,0,.507.075,1.75,1.75,0,0,0,1.674-1.243q.387-1.28.763-2.626c.048-.141.09-.287.135-.432,3.135,1.429,6.241,2.615,8.768,2.615a6.674,6.674,0,0,0,1.348-.129,1.75,1.75,0,0,0,.524-3.229,23.994,23.994,0,0,1-4.322-4.055,30.1,30.1,0,0,0-4.588-4.35,11.676,11.676,0,0,0,1.588-3.791,11.449,11.449,0,0,1,2.861,2.794,1.75,1.75,0,0,0,3.148-.649c.049-.24,1.062-5.42-1.835-12.208a21.105,21.105,0,0,1,3.641-.151,1.75,1.75,0,0,0,1.348-3ZM90.763,96.884c-2.5.6-4.014,3.074-4.752,5.176H81.5c.491-.941,1.192-1.81,2.08-1.81a1.75,1.75,0,0,0,1.571-.979l1.918-3.909q2.274-.121,4.58-.288Zm-51.794-.905c-3.168.339-6.568,3.569-7.919,6.081H24.833c1.332-1.415,3.262-2.8,4.346-2.593a1.757,1.757,0,0,0,1.889-.9c.022-.041,1.956-3.715,3.723-7.47,1.887.484,3.86.949,5.95,1.381C40.03,93.913,39.387,95.17,38.969,95.979Zm75.015-10q.168.183.336.363c-1.2-.465-2.37-.994-3.358-1.455.08-.637.135-1.252.173-1.826C112.073,83.912,113.086,85,113.984,85.975Z" fill="#072130"/>
    </g>
  </g>
</svg>
