<svg xmlns="http://www.w3.org/2000/svg" viewBox="0 0 64 64"><defs><style>.cls-1{fill:#d37b93;}.cls-2{fill:#281111;}.cls-3{fill:#edcad4;}</style></defs><title>pig</title><g id="pig"><path class="cls-1" d="M55.9,49a11.34,11.34,0,0,1-10.81,8H18.91A11.32,11.32,0,0,1,8.21,42l7.64-22.14A11,11,0,0,0,22,16.74L27.78,11h8.31l5.74,5.74a10.92,10.92,0,0,0,6.33,3.12L55.79,42A11.33,11.33,0,0,1,55.9,49Z"/><path class="cls-1" d="M55.9,49a11.34,11.34,0,0,1-10.81,8H18.91A11.32,11.32,0,0,1,8.21,42l7.64-22.14A11,11,0,0,0,22,16.74L27.78,11h8.31l5.74,5.74a10.92,10.92,0,0,0,6.33,3.12L55.79,42A11.33,11.33,0,0,1,55.9,49Z"/><circle class="cls-2" cx="22.5" cy="30.5" r="1.5"/><circle class="cls-2" cx="41.5" cy="30.5" r="1.5"/><path class="cls-3" d="M28.39,10.39l-.61.61L22,16.74a11,11,0,0,1-15.56,0l6.35-6.35A11,11,0,0,1,28.39,10.39Z"/><path class="cls-3" d="M57.39,16.74a11,11,0,0,1-15.56,0L36.09,11l-.61-.61a11,11,0,0,1,15.56,0Z"/><path class="cls-3" d="M27,38H37a6,6,0,0,1,6,6v0a9,9,0,0,1-9,9H30a9,9,0,0,1-9-9v0A6,6,0,0,1,27,38Z"/><circle class="cls-2" cx="27" cy="46" r="2"/><circle class="cls-2" cx="37" cy="46" r="2"/><path class="cls-2" d="M46,58A1,1,0,0,1,45,57,1,1,0,0,1,45.92,56a10.21,10.21,0,0,0,5.29-2A10.39,10.39,0,0,0,55,48.74a10.21,10.21,0,0,0-.11-6.42L47.41,20.75a11.85,11.85,0,0,1-6.29-3.3l-.23-.23a1,1,0,1,1,1.42-1.42l.23.23a9.91,9.91,0,0,0,5.75,2.84,1,1,0,0,1,.82.66l7.63,22.13a12.26,12.26,0,0,1,.12,7.67,12.45,12.45,0,0,1-4.47,6.27A12.28,12.28,0,0,1,46.08,58Z"/><path class="cls-2" d="M37,58H18.91A12.27,12.27,0,0,1,7.14,49.34a12.75,12.75,0,0,1-.55-3.67,12.5,12.5,0,0,1,.67-4l2.84-8.23a1,1,0,1,1,1.9.66L9.16,42.32a10.08,10.08,0,0,0-.57,3.35,10.74,10.74,0,0,0,.46,3.08A10.29,10.29,0,0,0,18.91,56H37a1,1,0,0,1,0,2Z"/><path class="cls-2" d="M12.34,31A1.26,1.26,0,0,1,12,31a1,1,0,0,1-.62-1.28L14.9,19.52a1,1,0,0,1,.81-.66A9.87,9.87,0,0,0,21.33,16l5.74-5.74a1,1,0,0,1,.71-.29h8.31a1,1,0,0,1,.71.29l3.4,3.4a1,1,0,0,1-1.42,1.42L35.68,12H28.19l-5.44,5.45a12,12,0,0,1-6.15,3.29l-3.31,9.62A1,1,0,0,1,12.34,31Z"/><path class="cls-2" d="M42,58H41a1,1,0,0,1,0-2h1a1,1,0,0,1,0,2Z"/><path class="cls-2" d="M46,58A1,1,0,0,1,45,57,1,1,0,0,1,45.92,56a10.21,10.21,0,0,0,5.29-2A10.39,10.39,0,0,0,55,48.74a10.21,10.21,0,0,0-.11-6.42L47.41,20.75a11.85,11.85,0,0,1-6.29-3.3l-.23-.23a1,1,0,1,1,1.42-1.42l.23.23a9.91,9.91,0,0,0,5.75,2.84,1,1,0,0,1,.82.66l7.63,22.13a12.26,12.26,0,0,1,.12,7.67,12.45,12.45,0,0,1-4.47,6.27A12.28,12.28,0,0,1,46.08,58Z"/><path class="cls-2" d="M37,58H18.91A12.27,12.27,0,0,1,7.14,49.34a12.75,12.75,0,0,1-.55-3.67,12.5,12.5,0,0,1,.67-4l2.84-8.23a1,1,0,1,1,1.9.66L9.16,42.32a10.08,10.08,0,0,0-.57,3.35,10.74,10.74,0,0,0,.46,3.08A10.29,10.29,0,0,0,18.91,56H37a1,1,0,0,1,0,2Z"/><path class="cls-2" d="M12.34,31A1.26,1.26,0,0,1,12,31a1,1,0,0,1-.62-1.28L14.9,19.52a1,1,0,0,1,.81-.66A9.87,9.87,0,0,0,21.33,16l5.74-5.74a1,1,0,0,1,.71-.29h8.31a1,1,0,0,1,.71.29l3.4,3.4a1,1,0,0,1-1.42,1.42L35.68,12H28.19l-5.44,5.45a12,12,0,0,1-6.15,3.29l-3.31,9.62A1,1,0,0,1,12.34,31Z"/><path class="cls-2" d="M42,58H41a1,1,0,0,1,0-2h1a1,1,0,0,1,0,2Z"/><path class="cls-2" d="M14.28,21a12,12,0,0,1-8.51-3.51,1,1,0,0,1,0-1.42L10,11.81a1,1,0,0,1,1.42,1.42L7.93,16.71A10,10,0,0,0,21.33,16l5.61-5.61a9.93,9.93,0,0,0-12.75.08A1,1,0,1,1,12.91,9a11.91,11.91,0,0,1,16.19.7,1,1,0,0,1,0,1.42l-6.35,6.35A12,12,0,0,1,16,20.84,12.29,12.29,0,0,1,14.28,21Z"/><path class="cls-2" d="M49.65,21A12.6,12.6,0,0,1,48,20.85a11.89,11.89,0,0,1-6.91-3.4l-.23-.23a1,1,0,1,1,1.42-1.42l.23.23a10,10,0,0,0,13.4.68L50.33,11.1a9.93,9.93,0,0,0-7.07-2.93h0a9.91,9.91,0,0,0-6.32,2.25l3.27,3.27a1,1,0,0,1-1.42,1.42l-4-4a1,1,0,0,1,0-1.42,11.91,11.91,0,0,1,8.48-3.51h0a11.93,11.93,0,0,1,8.49,3.51L58.1,16a1,1,0,0,1,0,1.42A11.92,11.92,0,0,1,49.65,21Z"/><path class="cls-2" d="M34,54H30a10,10,0,0,1-9.45-6.75,1,1,0,1,1,1.9-.64A8,8,0,0,0,30,52h4a8,8,0,0,0,8-8,5,5,0,0,0-5-5H27a5,5,0,0,0-3.53,1.46,4.86,4.86,0,0,0-1.39,2.7,1,1,0,0,1-2-.32A7,7,0,0,1,27,37H37a7,7,0,0,1,7,7A10,10,0,0,1,34,54Z"/></g></svg>