<svg xmlns="http://www.w3.org/2000/svg" viewBox="0 0 64 64"><defs><style>.cls-1{fill:#87868a;}.cls-2{fill:#eaeaea;}.cls-3{fill:#646467;}.cls-4{fill:#281111;}</style></defs><title>rhino</title><g id="rhino"><path class="cls-1" d="M53,43.22a9.42,9.42,0,0,1-7.64,9.24L32,57,18.64,52.46A9.42,9.42,0,0,1,11,43.22,9.47,9.47,0,0,1,12,39l1-2a38.07,38.07,0,0,0,4-17h0a8.77,8.77,0,0,1,.08-1.15,8,8,0,0,1,5.86-6.58A7.81,7.81,0,0,1,25,12H39a7.81,7.81,0,0,1,2.06.27,8,8,0,0,1,5.86,6.58A8.77,8.77,0,0,1,47,20h0a38.07,38.07,0,0,0,4,17l1,2A9.47,9.47,0,0,1,53,43.22Z"/><path class="cls-2" d="M32,47h0a5.08,5.08,0,0,1-5-5.92L30.84,31A1.17,1.17,0,0,1,32,30h0a1.17,1.17,0,0,1,1.16,1L37,41.08A5.08,5.08,0,0,1,32,47Z"/><path class="cls-3" d="M22.94,12.27a8,8,0,0,0-5.86,6.58A12,12,0,0,1,7,7h6A12,12,0,0,1,22.94,12.27Z"/><path class="cls-3" d="M57,7A12,12,0,0,1,46.92,18.85a8,8,0,0,0-5.86-6.58A12,12,0,0,1,51,7Z"/><path class="cls-4" d="M28,52a1,1,0,0,1-1-1V50a1,1,0,0,1,2,0v1A1,1,0,0,1,28,52Z"/><path class="cls-4" d="M36,52a1,1,0,0,1-1-1V50a1,1,0,0,1,2,0v1A1,1,0,0,1,36,52Z"/><circle class="cls-4" cx="40.5" cy="29.5" r="1.5"/><circle class="cls-4" cx="23.5" cy="29.5" r="1.5"/><path class="cls-4" d="M32,48a6.09,6.09,0,0,1-6-7.09.64.64,0,0,1,.06-.18l1.23-3.24a1,1,0,0,1,.7-.62.74.74,0,0,1,.24,0h0a1,1,0,0,1,1,1,1,1,0,0,1-.12.48l-1.15,3a4.08,4.08,0,1,0,8.08,0l-3.81-10a.89.89,0,0,1-.06-.2c0-.17-.32-.17-.34,0a.89.89,0,0,1-.06.2l-1.19,3.12a1,1,0,1,1-1.86-.72l1.15-3a2.18,2.18,0,0,1,4.26,0l3.81,10a.82.82,0,0,1,.06.19A6.09,6.09,0,0,1,32,48Z"/><path class="cls-4" d="M17.08,19.85h-.16a12.94,12.94,0,0,1-9.23-6.43,1,1,0,1,1,1.74-1,11,11,0,0,0,6.87,5.24,9,9,0,0,1,5-5.88A11,11,0,0,0,13,8H8.05c0,.33.07.66.13,1a1,1,0,0,1-2,.36A12.31,12.31,0,0,1,6,7,1,1,0,0,1,7,6h6a13,13,0,0,1,10.77,5.71,1,1,0,0,1,.11.91,1,1,0,0,1-.68.62A7,7,0,0,0,18.07,19a1,1,0,0,1-.4.67A1,1,0,0,1,17.08,19.85Z"/><path class="cls-4" d="M57,6H51a13,13,0,0,0-10.37,5.15c-.14.18-.27.37-.4.56a1,1,0,0,0-.11.91,1,1,0,0,0,.68.62A7,7,0,0,1,45.93,19V19a1,1,0,0,0,.4.63,1,1,0,0,0,.59.19h.16c.31-.05.61-.11.91-.18A12.93,12.93,0,0,0,58,7,1,1,0,0,0,57,6ZM47.7,17.67a2.76,2.76,0,0,0-.08-.27,6.86,6.86,0,0,0-.27-.76.3.3,0,0,0,0-.1c-.09-.23-.2-.45-.31-.67a6.23,6.23,0,0,0-.41-.71,7.49,7.49,0,0,0-.45-.65l0,0a5.85,5.85,0,0,0-.45-.54,3.07,3.07,0,0,0-.25-.26,1.88,1.88,0,0,0-.25-.24,7.79,7.79,0,0,0-.76-.64c-.13-.1-.26-.2-.4-.29l-.43-.27a6.79,6.79,0,0,0-.89-.46A11,11,0,0,1,51,8h5A10.94,10.94,0,0,1,47.7,17.67Z"/><path class="cls-4" d="M32,58a1.13,1.13,0,0,1-.32,0l-13.3-4.52A10.42,10.42,0,0,1,10,43.22a10.58,10.58,0,0,1,1.09-4.65l1-2A37.31,37.31,0,0,0,16,20a9.74,9.74,0,0,1,.09-1.28,9,9,0,0,1,6.59-7.42A8.89,8.89,0,0,1,25,11H39a8.89,8.89,0,0,1,2.32.3,9,9,0,0,1,6.59,7.41A10,10,0,0,1,48,20c0,1,0,2,.12,2.93A1,1,0,0,1,47.2,24a1,1,0,0,1-1.08-.92C46,22.07,46,21,46,20a7.5,7.5,0,0,0-.07-1,7,7,0,0,0-5.13-5.74A6.68,6.68,0,0,0,39,13H25a7.1,7.1,0,0,0-1.8.23A7,7,0,0,0,18.07,19,7.25,7.25,0,0,0,18,20a39.2,39.2,0,0,1-4.14,17.5l-1,2A8.58,8.58,0,0,0,12,43.22a8.43,8.43,0,0,0,6.83,8.26l.13,0,13,4.43,8.75-3a1,1,0,1,1,.64,1.9L32.32,58A1.13,1.13,0,0,1,32,58Z"/><path class="cls-4" d="M46.91,53a1,1,0,0,1-.35-1.93,8.43,8.43,0,0,0,4.55-11.65l-1-2A38.62,38.62,0,0,1,47.05,29c-.16-.64-.29-1.28-.4-1.91a1,1,0,1,1,2-.36c.11.6.24,1.2.38,1.81a37.38,37.38,0,0,0,2.93,8.07l1,2A10.41,10.41,0,0,1,47.26,53,.84.84,0,0,1,46.91,53Z"/><path class="cls-4" d="M43.89,54A1,1,0,0,1,43.56,52l.17-.06a1,1,0,1,1,.66,1.88l-.17.06A1,1,0,0,1,43.89,54Z"/></g></svg>