<?xml version="1.0" encoding="utf-8"?>
<!-- Generator: Adobe Illustrator 24.3.0, SVG Export Plug-In . SVG Version: 6.00 Build 0)  -->
<svg version="1.1" id="Layer_1" xmlns="http://www.w3.org/2000/svg" xmlns:xlink="http://www.w3.org/1999/xlink" x="0px" y="0px"
	 viewBox="0 0 325 325" enable-background="new 0 0 325 325" xml:space="preserve">
<g id="koyun_1_">
	<g id="gövde_1_">
		<g id="arka_x5F_sol_x5F_ayak_1_">
			<path fill="#2D2D2E" d="M128.46,234.885c0,0,2.896,3.205,4.461,10.228c0,0-1.461,0.797-2.922,0.93c0,0-0.664-4.781-2.789-6.907
				c0,0,1.858,4.649,1.858,6.907c0,0-4.515,3.188-8.899-0.797c0,0,0.117-6.629-0.664-8.102
				C119.506,237.144,124.341,239.136,128.46,234.885z"/>
			<g>
				<path fill="#DA947D" d="M116.759,208.829c0,0-0.271,13.043,11.956,26.358c0,0-2.302,4.88-9.209,1.957
					c0,0-3.056-11.158-13.549-22.98c0,0-3.986-3.453-2.524-8.899l13.682-0.93L116.759,208.829z"/>
			</g>
		</g>
		<g id="arka_x5F_tüy_1_">
			<path fill="#C0BDBD" d="M132.493,180.981c0,0,3.678,19.812-11.323,23.209c0,0-1.415,11.605-9.905,7.642
				c0,0-2.548,6.105-8.491,0.825c0,0-8.208-4.221-2.264-13.561c0,0-10.756-15.001,4.245-23.492
				C104.754,175.603,123.718,161.451,132.493,180.981z"/>
		</g>
		<g id="ön_x5F_sol_x5F_ayak_1_">
			<g>
				<path fill="#2D2D2E" d="M195.921,240.833c0,0,1.646,5.123,1.144,8.135l-1.673,0.205c0,0,0-4.324-0.836-5.83
					c0,0,1.004,3.629,0,5.83c0,0-4.397,1.613-7.528-1.15l0.67-7.022C187.697,241,190.381,243.297,195.921,240.833z"/>
				<path fill="#DA947D" d="M196.732,202.689c0,0-3.179,22.418-0.838,38.312c0,0-5.854,2.342-8.197,0c0,0,0.455-1.481-0.231-1.999
					c-0.633-0.479-0.787-1.356-0.286-1.971c0.023-0.028,0.046-0.055,0.07-0.084c0.412-0.486,0.655-1.094,0.672-1.731
					c0.046-1.829-0.04-5.803-1.259-10.894c-0.036-0.148-0.064-0.297-0.083-0.448c-0.249-1.931-2.309-8.492,0.031-19.847
					L196.732,202.689z"/>
			</g>
			<path opacity="0.14" fill="#202020" d="M196.732,202.689l-0.98,9.997c-0.032,0.319-0.177,0.615-0.409,0.835
				c-1.183,1.122-5.126,4.546-9.61,5.02c-0.004,0.001-0.006-0.001-0.006-0.004c-0.033-0.198-1.002-6.388,0.883-14.509
				L196.732,202.689z"/>
		</g>
		<path id="ön_x5F_tüy_1_" fill="#C0BDBD" d="M208.206,176.452c0,0,3.962,16.133-3.963,20.095c0,0,3.115,5.66-2.548,6.793
			c0,0-0.283,11.604-11.887,7.076c0,0-9.057,4.246-12.736-1.698c0,0-7.359-11.038,3.962-20.662c0,0-4.528-11.321,8.209-13.868
			C189.243,174.188,201.696,162.017,208.206,176.452z"/>
		<g id="ön_x5F_sag_x5F_ayak_1_">
			<g>
				<path fill="#383838" d="M191.065,243.54c0,0,1.461,6.875,1.607,11.557c0,0-1.007,0.514-1.197,0.226c0,0-0.616-5.814-1.808-8.138
					c0,0,1.431,5.698,0.715,8.302c0,0-6.853,1.114-10.548-1.15c0,0,0.62-3.549,2.077-7.196c0.078-0.193,0.133-0.393,0.159-0.599
					c0.05-0.384,0.166-1.068,0.398-1.488C182.468,245.053,188.577,245.663,191.065,243.54z"/>
				<g>
					<path fill="#E9AD95" d="M187.552,211.352c0,0-1.317,10.973,3.658,32.626c0,0,0.586,2.487-8.924,1.317
						c0,0,0.623-0.988-1.025-2.049c0,0-0.771-0.386,0.578-2.242c0.258-0.354,0.414-0.77,0.459-1.205
						c0.186-1.808,0.055-7.137-3.989-20.822c-0.137-0.467-0.357-0.905-0.627-1.309c-0.515-0.771-1.231-2.724,0.359-6.755
						l6.439-0.575C185.601,210.239,186.712,210.606,187.552,211.352L187.552,211.352z"/>
				</g>
			</g>
			<path opacity="0.12" fill="#202020" d="M187.422,213.169l-0.108,4.144c0,0-1.547,2.335-4.338,2.349
				c-1.011,0.005-1.703,1.026-1.358,1.977c1.5,4.13,4.182,12.453,3.343,17.146c-0.051,0.285-0.186,0.547-0.376,0.765
				c-0.502,0.572-1.487,1.879-1.245,3.091c0.057,0.28,0.25,0.528,0.522,0.612c0.184,0.057,0.373,0.296,0.254,1.108
				c-0.009,0.062-0.017,0.124-0.022,0.185c-0.062,0.713-0.453,5.329-0.398,7.669c0.019,0.803,0.471,1.533,1.18,1.911
				c0.998,0.534,3.437,1.309,5.14,1.414l-1.602,0.116c0,0-5.27,0.634-8.58-1.318c0,0,0.437-2.567,1.993-6.981
				c0.332-0.943,0.296-1.161,0.459-2.061c0,0,0.758-1.143-1.025-2.049c0,0-0.795-0.231,0.578-2.242c0,0,0.629-0.906,0.401-4.46
				c0,0-0.549-5.957-4.199-18.462c0,0-2.184-1.573,0-7.169c0,0,5.946-0.618,7.343-0.554c0.98,0.045,2.168,0.992,2.168,0.992
				L187.422,213.169z"/>
		</g>
		<g id="arka_x5F_sag_x5F_ayak_1_">
			<g>
				<path fill="#383838" d="M113.518,246.255c0,0,2.021,3.369,2.021,9.88l-1.573,0.786c0,0-1.571-5.389-2.694-6.175
					c0,0,1.796,5.95,1.235,6.848c0,0-7.074,1.348-9.206-1.459c0,0,0.673-6.063,0-8.197
					C103.302,247.939,108.354,249.624,113.518,246.255z"/>
				<g>
					<path fill="#E9AD95" d="M96.069,189.459c0,0,3.367,11.442,8.179,30.569c2.076,8.253,6.771,18.573,9.075,26.277
						c0,0,0.84,2.758-9.953,2.134c0,0,0.631-1.159-1.302-2.231c0,0-0.897-0.378,0.488-2.567c0.263-0.417-4.774-15.218-9.124-21.275
						c-5.942-8.268-6.224-12.797-7.213-23.646c-0.051-0.547-0.469-0.993-0.802-1.429c-0.636-0.83-1.584-2.978-0.087-7.632
						l5.841-1.207C92.424,188.257,95.068,188.679,96.069,189.459L96.069,189.459z"/>
				</g>
			</g>
			<path opacity="0.11" fill="#202020" d="M101.077,209.002l-5.008-19.543c0,0-0.512-2.393-10.74,0.2c0,0-2.222,4.439,0.889,9.061
				l1.013,9.265c0,0,0.818,7.366,6.2,14.38c0,0,7.207,12.043,9.124,21.275c0,0-1.233,2.049-0.488,2.567c0,0,1.362,0.207,1.444,2.231
				c0,0,0.456,2.47-0.21,7.697c0,0,2.239,2.786,9.206,1.459c0,0-4.921-0.901-4.78-3.732c0,0-4.104-26.323-12.17-37.927
				c0,0-1.982-3.85,0.424-5.321C95.981,210.615,100.088,210.133,101.077,209.002z"/>
		</g>
		<g id="gövde_x5F_tüy_1_">
			<path fill="#E8E7E7" d="M85.358,203.388c-1.816,1.113-11.601,6.31-16.406-7.547c0,0-16.699-2.689-8.774-23.351
				c0,0-4.246-4.528-0.849-10.472c0,0-7.924-7.925,0.849-16.416c0,0-2.547-5.378,2.831-10.472c0,0-2.831-14.718,12.736-17.549
				c0,0-0.566-9.623,11.888-11.321c0,0,3.396-14.435,17.831-10.756c0,0,4.812-7.075,15.001-3.679c0,0,7.925-13.869,22.077-7.642
				c0,0,7.36-10.472,20.661-3.114c0,0,9.058-11.187,23.21-2.621c0,0,10.19-3.322,11.604,8.282c0,0,17.266,4.528,11.887,18.963
				c0,0,16.663,9.224,9.064,19.106c0,0-3.119,3.254-4.535,3.537c-1.415,0.283-1.415,0.283-1.415,0.283l0,0
				c0,0,18.397,3.499,10.189,19.227c0,0,2.84,4.946-2.548,6.812c0,0,6.227,15.85-7.358,16.982c0,0,5.095,13.868-9.058,14.152
				c0,0,2.554,8.302-5.971,8.302c0,0,1.726,8.114-4.785,9.529c0,0,4.529,11.605-8.207,11.888c0,0-1.982,2.548-5.095,0
				c0,0-12.171,2.83-12.171-9.057c0,0-11.322-3.68-8.491-11.605c0,0-7.075,6.51-13.02,0c0,0-7.075,8.208-16.982-1.698
				c0,0-4.811,12.029-15.851,0.708c0,0,5.945,8.208-5.66,7.925c0,0,3.397,7.075-5.661,4.811c0,0-2.265,9.057-9.623,1.415
				c0,0-3.595,2.928-6.408,0.179c0,0-1.328-0.966-0.729-4.643C85.612,203.415,85.471,203.318,85.358,203.388z"/>
			<path opacity="0.9" fill="#F8F8F8" d="M105.181,95.428c0,0-18.381,3.04-16.098,16.334c0,0-15.602,5.742-6.545,18.478
				c0,0-15.002,8.492-6.509,15.567l3.679-4.529c0,0-5.661,8.492,4.245,15.002c0,0-8.774,9.906,0.567,12.737
				c0,0,0.566,15.567,11.321,6.793c0,0,8.491,15.567,19.247,1.415c0,0,12.737,1.981,10.473-16.134c0,0,6.014,22.36,18.856,15.284
				c0,0,4.497,9.983,10.441,2.341c0,0-2.693,12.661,10.893,7.283c0,0-1.415,18.398,10.473,12.453c0,0,11.604,7.643,11.888-6.227
				c0,0,5.094-3.113,0-6.51c0,0,11.039-4.528,8.774-16.133c0,0-0.566-2.547-3.113-3.396c0,0,15-2.83,7.924-16.133
				c0,0,1.496,7.974,5.247,11.705c1.786,1.778,4.802,1.194,5.835-1.104c1.199-2.664,2.056-6.578-1.175-9.469
				c0,0,7.907-2.547,2.822-10.756c0,0,6.801-6.51-5.087-13.02c0,0,20.114-9.563,0.566-21.718c0,0,6.087-13.672-11.887-19.039
				c0,0-0.424-10.882-11.604-8.206l-1.393-0.789c0,0-14.286-7.81-21.816,3.334c0,0-11.405-8.248-20.661,3.19
				c0,0-13.036-7.471-22.077,7.849C120.465,92.031,112.853,87.455,105.181,95.428z"/>
		</g>
	</g>
	<g id="baş_1_">
		<path id="kulak_1_" fill="#E9AD95" d="M197.275,112.446c0,0-12.366-5.707-16.008,3.474c-1.121,2.829-0.923,6.009,0.43,8.736
			c2.594,5.232,8.768,14.064,18.623,6.813c0,0,4.818-4.059,2.282-15.979C202.602,115.49,200.32,112.193,197.275,112.446z"/>
		<g id="yüz_1_">
			<path fill="#C0BDBD" d="M244.57,104.353c0,0,8.783,4.88,6.18,15.613c0,0-3.579,17.891-21.794,5.856
				C228.956,125.822,217.896,100.449,244.57,104.353z"/>
			<path id="yüz_2_" fill="#FAD7C0" d="M199.901,123.652c0,0-9.774,51.662,31.765,67.544c0,0,19.953,4.943,34.207-12.161v-4.479
				c0,0,10.995-19.437-8.553-31.709c0,0-9.455-9.922-18.112-24.094c0,0-8.765-23.2-33.199-13.019
				C206.009,105.734,195.83,110.213,199.901,123.652z"/>
			<path opacity="0.19" fill="#CD7949" d="M202.517,132.64c0,0,6.622,7.64,17.488-7.981c0,0,4.075-9.507,16.299-8.319l-3.736-10.357
				l-29.032,11.036L202.517,132.64z"/>
			<path opacity="0.19" fill="#CD7949" d="M202.688,127.206c0,0-1.106,23.326,5.663,38.346c1.179,2.616,4.05,3.846,6.858,3.256
				c1.183-0.249,2.886,0.547,5.307,3.73c0,0,4.151,5.313,11.036,2.377c0,0,3.226-1.003,2.037,1.706l0,0
				c-0.361,1.892,0.921,3.703,2.824,3.996c3.306,0.508,8.135,1.513,10.758,3.297c0,0,6.254,1.848,9.399,0.471
				c0.292-0.128,9.072-5.163,9.303-5.351c2.716-2.207-12.594,17.188-34.207,12.161c0,0-21.143-5.54-29.423-31.547
				c0,0-7.002-18.537-0.986-39.671L202.688,127.206z"/>
		</g>
		<g id="yanak_1_">
			<path id="yanak_8_" fill="#E9AD95" d="M220.295,160.338c0,0-17.744,8.592,0,23.907c0,0,11.394,8.406,16.436-11.954
				c0,0,0-2.615-2.988-2.802C233.744,169.49,233.183,159.964,220.295,160.338z"/>
			<g id="yanak_6_">
				<path fill="#D08E78" d="M235.199,175.51c1.036,0.785,1.494,1.706,1.731,2.635c0.217,0.931,0.159,1.902-0.219,2.834
					c-0.371,0.923-1.043,1.83-2.082,2.387c-1.022,0.547-2.372,0.651-3.391-0.152c0.47-1.239,0.476-1.956,0.52-2.534
					c0.038-0.565,0.093-1.057,0.31-1.555c0.206-0.501,0.528-1.04,0.998-1.633C233.557,176.896,234.165,176.272,235.199,175.51z"/>
			</g>
		</g>
		<g id="ağız_1_">
			<path fill="#A55140" d="M234.406,180.027c1.248-1.264,2.837-1.908,4.418-2.317c1.594-0.384,3.244-0.473,4.85-0.302
				c0.806,0.08,1.598,0.229,2.377,0.429c0.392,0.093,0.766,0.228,1.151,0.345l0.875,0.287c0.921,0.275,1.834,0.493,2.761,0.624
				c0.926,0.142,1.86,0.203,2.829,0.204l0.732-0.021c0.248-0.009,0.56-0.045,0.835-0.068c0.57-0.049,1.134-0.108,1.693-0.188
				c0.94-0.057,1.878-0.22,2.954-0.732c0.27-0.121,0.525-0.273,0.805-0.431c0.268-0.154,0.535-0.35,0.855-0.599
				c0.607-0.467,1.262-0.909,1.977-1.322c0.104,0.819,0.148,1.608,0.144,2.374c0.033,0.737-0.146,1.693-0.442,2.512
				c-0.583,1.682-1.854,3.295-3.422,4.372c-0.689,0.499-1.407,0.94-2.144,1.323c-0.378,0.191-0.722,0.363-1.14,0.526
				c-0.416,0.175-0.844,0.315-1.276,0.448c-1.734,0.508-3.578,0.691-5.385,0.52c-1.81-0.158-3.579-0.667-5.196-1.448l-0.597-0.312
				c-0.202-0.108-0.272-0.155-0.413-0.24l-0.74-0.479c-0.499-0.31-0.995-0.642-1.502-0.975l-3.191-2.106
				C237.072,181.707,235.888,180.929,234.406,180.027z"/>
		</g>
		<g id="tüy_1_">
			<path fill="#E8E7E7" d="M213.747,119.173c0,0,4.073,17.918-15.475,12.623c0,0-10.994,0-7.737-12.623
				c0,0-16.697-2.851-18.326-23.213c0,0-3.665-28.913,28.913-28.913c0,0,14.681,0,19.954,8.552c0,0,13.439-7.737,27.284,4.887
				c0,0,15.475,19.954,0,31.764c0,0-2.165,5.236-6.969,6.336c-3.024,0.692-6.165-0.568-8.046-3.036l0,0
				c-0.681-0.893-1.916-1.165-2.898-0.619c-2.196,1.223-6.286,2.805-10.185,0.577C220.264,115.507,217.412,124.059,213.747,119.173z
				"/>
			<path opacity="0.9" fill="#F8F8F8" d="M212.157,68.909c0,0-21.315-6.931-33.361,5.98c-2.457,2.633-3.135,6.512-1.583,9.762
				c1.12,2.345,3.332,4.263,7.683,3.44c0,0-5.068,15.712,4.58,20.089c0.232,0.105,0.462,0.22,0.685,0.343
				c2.394,1.318,16.944,8.415,21.463-11.091c0,0,23.355,6.976,23.096-9.616c0,0,3.706,0.885,4.923,3.631
				c0.388,0.876,0.88,1.701,1.521,2.413c2.296,2.551,7.49,6.511,13.444-0.787c0,0-2.533-17.866-20.68-19.827
				c0,0-10.515-0.242-12.851,2.353C221.078,75.598,218.654,70.931,212.157,68.909z"/>
		</g>
		<g id="göz_kırpma_1_">
			<g>
				<path opacity="0.3" fill="#CD7949" d="M228.647,123.649c0,0,6.408,1.024,8.535,8.66c0,0,0.381,7.625-9.141,6.322
					c0,0-7.097-2.473-6.967-10.114C221.074,128.517,221.91,122.086,228.647,123.649z"/>
				<g>
					<path fill="#1E1E1E" d="M237.184,132.441c1.052,1.089,1.327,2.603,0.977,4.054c-0.346,1.462-1.448,2.817-2.796,3.535
						c-1.354,0.781-2.815,0.836-4.123,0.651c-0.641-0.166-1.269-0.369-1.847-0.691c-0.567-0.387-1.111-0.76-1.584-1.353
						c0.608-0.509,1.146-0.798,1.661-1.101c0.505-0.311,0.963-0.572,1.405-0.77c0.823-0.501,1.557-0.792,2.093-1.125
						c0.555-0.319,1.062-0.539,1.735-0.995C235.391,134.19,236.161,133.518,237.184,132.441z"/>
				</g>
			</g>
			<g>
				<path opacity="0.3" fill="#CD7949" d="M237.184,125.823c0,0,0.574-4.003,4.034-1.79c0,0,4.307,4.126,7.008,7.74
					c0,0,2.753,5.56-5.113,2.735C243.113,134.508,237.675,130.839,237.184,125.823z"/>
				<g>
					<path fill="#1E1E1E" d="M248.484,132.441c0.624,0.157,1.035,0.482,1.393,0.908c0.326,0.434,0.553,0.994,0.481,1.718
						c-0.033,0.712-0.494,1.518-1.131,2.059c-0.296,0.221-0.646,0.427-0.981,0.57c-0.299,0.102-0.613,0.18-0.927,0.235
						c-1.125,0.111-2.031-0.196-2.695-0.732c-0.689-0.536-1.192-1.304-1.461-2.486c0.98-0.774,1.71-1.077,2.312-1.352
						c0.61-0.218,1.029-0.395,1.212-0.389c0.007-0.012,0.015-0.002,0.038,0.032c-0.031,0.022-0.089,0.073-0.088,0.157
						c-0.124,0.139-0.108,0.455,0.053,0.527C247.071,133.881,247.699,133.336,248.484,132.441z"/>
				</g>
			</g>
		</g>
		<g id="gözler_1_">
			<g>
				<path opacity="0.19" fill="#CD7949" d="M244.443,127.199c0,0,8.655,8.766,4.58,10.718c0,0-7.836,0.87-11.84-12.014
					C237.183,125.903,237.206,118.736,244.443,127.199z"/>
				<g>
					<path fill="#EEEEEC" d="M238.977,124.362c1.764,0.023,5.172,1.117,9.222,7.74c0.348,0.57,0.456,1.279,0.221,1.904
						c-0.406,1.077-1.934,1.784-6.874-1.232c-0.231-0.141-2.231-2.063-2.407-2.268c-0.762-0.892-1.534-2.895-1.454-4.363
						C237.737,125.201,238.032,124.35,238.977,124.362z"/>
					<g>
						<g>
							<path fill="#161616" d="M237.605,125.649c-0.144-0.473-0.011-1.052,0.418-1.461c0.44-0.411,1.075-0.495,1.586-0.431
								c1.031,0.18,1.842,0.745,2.402,1.541c-0.499-0.049-0.925-0.183-1.346-0.286c-0.418-0.11-0.813-0.209-1.188-0.265
								c-0.374-0.056-0.695-0.041-1.001,0.072C238.178,124.951,237.872,125.234,237.605,125.649z"/>
						</g>
						<g>
							<path fill="#161616" d="M248.088,131.773c0.414,0.452,0.702,0.998,0.818,1.641c0.074,0.319,0.04,0.687-0.087,1.069
								c-0.177,0.373-0.566,0.718-0.944,0.786c-0.765,0.171-1.392-0.024-1.943-0.272c-0.563-0.239-1.049-0.595-1.489-1.011
								c0.616,0.039,1.169,0.184,1.715,0.264c0.532,0.093,1.085,0.16,1.44,0.058c0.206-0.016,0.257-0.126,0.37-0.234
								c0.08-0.153,0.142-0.363,0.162-0.62C248.171,132.95,248.121,132.378,248.088,131.773z"/>
						</g>
					</g>
					<path fill="#161616" d="M239.084,129.845c0.124,1.393,0.832,3.099,3.652,2.671c0,0,1.811-3.179-0.743-4.318
						c-0.228-0.101-0.489-0.196-0.777-0.258C240.05,127.692,238.978,128.658,239.084,129.845z"/>
					<path fill="#EEEEEC" d="M243.861,128.915c0,0.512-0.414,0.928-0.927,0.928c-0.512,0-0.926-0.415-0.926-0.928
						s0.414-0.928,0.926-0.928C243.446,127.988,243.861,128.403,243.861,128.915z"/>
				</g>
			</g>
			<g>
				<path opacity="0.19" fill="#CD7949" d="M220.473,128.052c0.253,2.419,1.489,8.629,7.498,11.831
					c0.876,0.467,1.833,0.766,2.82,0.868c2.546,0.265,7.004-0.28,6.569-7.482c-0.093-1.55-0.645-3.036-1.58-4.274
					c-1.825-2.419-5.47-6.335-10.275-6.9c0,0-4.052-0.695-4.94,3.647C220.41,126.501,220.392,127.281,220.473,128.052z"/>
				<g>
					<path fill="#EEEEEC" d="M221.217,130.299c-0.389-1.639,0.02-3.365,1.151-4.614c1.565-1.732,4.352-3.483,8.423-1.262
						c0,0,8.357,4.252,5.99,10.316c-0.123,0.316-0.311,0.602-0.529,0.863c-1.353,1.619-6.366,6.325-12.665-0.46
						C223.588,135.142,222.018,133.673,221.217,130.299z"/>
					<g>
						<path fill="#161616" d="M221.074,128.938c-0.091-1.005,0.125-2.045,0.591-2.984c0.468-0.938,1.245-1.769,2.215-2.262
							c0.977-0.472,2.055-0.648,3.088-0.575c0.515,0.033,1.016,0.16,1.51,0.256c0.48,0.172,0.955,0.34,1.409,0.55
							c-0.51,0.005-0.999-0.031-1.483-0.064c-0.487,0.021-0.966,0.004-1.435,0.038c-0.938,0.087-1.834,0.285-2.632,0.683
							C222.725,125.38,221.704,127.053,221.074,128.938z"/>
					</g>
					<g>
						<path fill="#161616" d="M237.204,132.178c0.21,1.068,0.1,2.221-0.332,3.273c-0.419,1.061-1.213,1.993-2.203,2.611
							c-1.011,0.593-2.149,0.842-3.26,0.901c-0.555,0.005-1.108-0.047-1.65-0.101c-0.537-0.119-1.07-0.235-1.586-0.395
							c0.548-0.06,1.079-0.077,1.606-0.096l1.553-0.185c1.005-0.207,1.98-0.47,2.818-0.979
							C235.841,136.202,236.82,134.302,237.204,132.178z"/>
					</g>
					<path fill="#161616" d="M228.647,132.309c0,1.311-1.131,2.373-2.526,2.373c-1.396,0-2.527-1.063-2.527-2.373
						c0-1.311,1.131-2.374,2.527-2.374C227.517,129.935,228.647,130.998,228.647,132.309z"/>
					<path fill="#EEEEEC" d="M229.179,131.04c0,0.629-0.509,1.138-1.138,1.138c-0.63,0-1.139-0.51-1.139-1.138
						c0-0.628,0.509-1.138,1.139-1.138C228.67,129.902,229.179,130.412,229.179,131.04z"/>
				</g>
			</g>
		</g>
		<g id="kaş_1_">
			<g>
				<path fill="#1E1E1E" d="M229.886,121.086c-1.5,0.628-2.541,1.019-3.398,1.355c-0.852,0.325-1.418,0.596-1.9,0.758
					c-0.475,0.186-0.992,0.203-1.785,0.498c-0.437,0.075-0.839,0.331-1.425,0.496c-0.576,0.205-1.117,0.498-1.967,0.744
					c-0.393-0.726-0.536-1.439-0.606-2.18c0.031-0.713,0.076-1.463,0.424-2.14c0.542-1.4,1.907-2.608,3.457-3.107
					c1.558-0.528,3.199-0.355,4.472,0.278C228.426,118.445,229.47,119.478,229.886,121.086z"/>
			</g>
			<g>
				<path fill="#1E1E1E" d="M233.928,121.064c-0.176-1.453,0.369-2.527,1.21-3.304c0.848-0.759,2.158-1.165,3.471-0.927
					c1.297,0.218,2.498,1.046,2.998,2.1c0.303,0.511,0.382,1.093,0.421,1.669c-0.047,0.611-0.137,1.193-0.483,1.851
					c-0.783,0.05-1.287,0.005-1.79,0.024c-0.495,0.054-0.851,0.006-1.165,0.084c-0.151,0.026-0.282,0.049-0.388,0.049
					c-0.117,0.044-0.206,0.075-0.281,0.085c-0.075-0.002-0.139,0.043-0.19,0.049c-0.049,0-0.093-0.007-0.14,0
					c-0.162-0.028-0.388-0.25-0.955-0.529C236.065,121.928,235.271,121.578,233.928,121.064z"/>
			</g>
		</g>
		<g id="burun_1_">
			<path fill="#E79F87" d="M241.766,131.376c1.944,1.083,19.619,11.09,25.429,20.335c0.62,0.986,0.816,2.185,0.552,3.32
				c-1.05,4.529-5.31,15.241-20.862,0.682c0,0-4.666-6.484-5.5-17.96c-0.101-1.384-0.513-2.73-1.237-3.913
				c-0.305-0.497-0.681-1.065-1.147-1.693c-0.372-0.504-0.315-1.206,0.136-1.64l0,0l2.267,0.714
				C241.531,131.26,241.651,131.312,241.766,131.376z"/>
			<path opacity="0.49" fill="#804130" d="M246.886,155.713c0,0-2.118-4.108,1.978-4.198c0.634-0.014,1.265,0.115,1.848,0.363
				c1.089,0.465,3.252,1.392,5.121,2.227c0.526,0.234,1.626,1.13,2.638,1.619c0.975,0.472,2.915,1.911,6.407-2.07
				c0.182-0.208,0.405-0.376,0.661-0.481c0.761-0.311,2.32-0.763,2.32,0.755c0,0-0.74,7.273-5.612,8.802
				C262.247,162.731,257.099,165.52,246.886,155.713z"/>
			<g>
				<path opacity="0.12" fill="#F8F8F8" d="M264.078,149.073c0,0.64-0.764,1.158-1.706,1.158c-0.942,0-1.708-0.519-1.708-1.158
					s0.766-1.159,1.708-1.159C263.314,147.914,264.078,148.433,264.078,149.073z"/>
				<path opacity="0.2" fill="#F8F8F8" d="M260.664,146.553c0,0.462-0.374,0.838-0.837,0.838s-0.838-0.376-0.838-0.838
					c0-0.463,0.374-0.838,0.838-0.838S260.664,146.09,260.664,146.553z"/>
			</g>
		</g>
	</g>
</g>
</svg>
